<svg width="147" height="65" viewBox="0 0 147 65" fill="none" xmlns="http://www.w3.org/2000/svg">
<path d="M1.00635 38L10.2056 9.81641H18.0181V16.5352H15.3228L9.71729 38H1.00635ZM6.7876 32.3945L8.50635 26.5547H22.2954L24.0142 32.3945H6.7876ZM21.0845 38L15.479 16.5352V9.81641H20.5962L29.7954 38H21.0845ZM33.5345 38V9.81641H46.2298C48.6517 9.81641 50.6894 10.1875 52.3431 10.9297C54.0097 11.6719 55.2728 12.7591 56.1321 14.1914C56.9915 15.6237 57.4212 17.3815 57.4212 19.4648V19.5039C57.4212 21.2617 57.0045 22.8698 56.1712 24.3281C55.3509 25.7865 54.2571 26.8477 52.8899 27.5117L58.2415 38H48.9837L44.5306 28.7422C44.4785 28.7422 44.4199 28.7422 44.3548 28.7422C44.2897 28.7422 44.2246 28.7422 44.1595 28.7422H41.8157V38H33.5345ZM41.8157 22.9023H45.2728C46.3925 22.9023 47.291 22.5833 47.9681 21.9453C48.6452 21.3073 48.9837 20.474 48.9837 19.4453V19.4062C48.9837 18.3776 48.6386 17.5443 47.9485 16.9062C47.2584 16.2552 46.3665 15.9297 45.2728 15.9297H41.8157V22.9023ZM62.0001 38V9.81641H81.8829V16.3789H70.2813V20.8711H81.1603V26.9648H70.2813V31.4375H81.8829V38H62.0001ZM86.9501 38V9.81641H93.8446L105.993 27.3945L100.563 24.2305H103.942V9.81641H112.224V38H105.407L93.2001 20.1875L98.6103 23.3516H95.2313V38H86.9501ZM115.963 38L125.162 9.81641H132.974V16.5352H130.279L124.674 38H115.963ZM121.744 32.3945L123.463 26.5547H137.252L138.97 32.3945H121.744ZM136.041 38L130.435 16.5352V9.81641H135.552L144.752 38H136.041Z" fill="#0A4438"/>
<path d="M0 61V49.022H1.26172V59.896H9.44629V61H0ZM11.0151 61L17.0747 49.022H18.104V50.3418H17.7222L12.3765 61H11.0151ZM13.5137 57.3726L14.0117 56.3433H21.4907L21.9805 57.3726H13.5137ZM23.126 61L17.772 50.3418V49.022H18.4277L24.4873 61H23.126ZM32.73 61.2241C31.6841 61.2241 30.735 61.0775 29.8828 60.7842C29.0306 60.4854 28.2974 60.062 27.6831 59.5142C27.0688 58.9608 26.5957 58.2995 26.2637 57.5303C25.9372 56.7611 25.7739 55.9061 25.7739 54.9653V54.9487C25.7739 53.7147 26.0617 52.6356 26.6372 51.7114C27.2127 50.7873 28.0234 50.0706 29.0693 49.5615C30.1152 49.0524 31.3354 48.7979 32.73 48.7979C33.8312 48.7979 34.8273 48.9556 35.7183 49.271C36.6147 49.5864 37.3646 50.0319 37.9678 50.6074C38.5765 51.1774 38.9971 51.8553 39.2295 52.6411L39.2544 52.7158H37.9595L37.9346 52.6577C37.5583 51.7944 36.9136 51.1221 36.0005 50.6406C35.0929 50.1592 34.0055 49.9185 32.7383 49.9185C31.5928 49.9185 30.5939 50.126 29.7417 50.541C28.895 50.9561 28.2365 51.5399 27.7661 52.2925C27.2957 53.0451 27.0605 53.9305 27.0605 54.9487V54.9653C27.0605 55.7401 27.1934 56.4429 27.459 57.0737C27.7301 57.7046 28.1147 58.2469 28.6128 58.7007C29.1164 59.1489 29.7168 59.4948 30.4141 59.7383C31.1113 59.9818 31.8861 60.1035 32.7383 60.1035C33.7731 60.1035 34.6779 59.943 35.4526 59.6221C36.2274 59.2956 36.8389 58.8363 37.2871 58.2441C37.7409 57.652 38.001 56.9548 38.0674 56.1523L38.0757 56.0029H32.7715V54.9736H39.3374V55.7539C39.3374 56.5674 39.1797 57.3117 38.8643 57.9868C38.5544 58.6564 38.1061 59.2347 37.5195 59.7217C36.9385 60.2031 36.2412 60.5739 35.4277 60.834C34.6198 61.0941 33.7205 61.2241 32.73 61.2241ZM48.7256 61.2241C47.3089 61.2241 46.0721 60.9723 45.0151 60.4688C43.9582 59.9596 43.1392 59.2402 42.5581 58.3105C41.9826 57.3753 41.6948 56.2769 41.6948 55.0151V54.9985C41.6948 53.7313 41.9854 52.6356 42.5664 51.7114C43.1475 50.7817 43.9637 50.0651 45.0151 49.5615C46.0721 49.0524 47.3089 48.7979 48.7256 48.7979C50.1423 48.7979 51.3763 49.0524 52.4277 49.5615C53.4847 50.0651 54.3037 50.7817 54.8848 51.7114C55.4658 52.6411 55.7563 53.7368 55.7563 54.9985V55.0151C55.7563 56.2769 55.4658 57.3753 54.8848 58.3105C54.3037 59.2402 53.4847 59.9596 52.4277 60.4688C51.3763 60.9723 50.1423 61.2241 48.7256 61.2241ZM48.7256 60.1035C49.8766 60.1035 50.881 59.8932 51.7388 59.4727C52.6021 59.0521 53.2716 58.46 53.7476 57.6963C54.2235 56.9326 54.4614 56.0389 54.4614 55.0151V54.9985C54.4614 53.9637 54.2235 53.0672 53.7476 52.3091C53.2716 51.5509 52.6021 50.9644 51.7388 50.5493C50.881 50.1287 49.8766 49.9185 48.7256 49.9185C47.5745 49.9185 46.5674 50.1287 45.7041 50.5493C44.8464 50.9644 44.1768 51.5537 43.6953 52.3174C43.2194 53.0755 42.9814 53.9692 42.9814 54.9985V55.0151C42.9814 56.0444 43.2194 56.9409 43.6953 57.7046C44.1712 58.4627 44.8381 59.0521 45.6958 59.4727C46.5591 59.8932 47.569 60.1035 48.7256 60.1035ZM57.0513 61L63.1108 49.022H64.1401V50.3418H63.7583L58.4126 61H57.0513ZM59.5498 57.3726L60.0479 56.3433H67.5269L68.0166 57.3726H59.5498ZM69.1621 61L63.8081 50.3418V49.022H64.4639L70.5234 61H69.1621ZM78.2598 61V59.9292H84.7344C85.7747 59.9292 86.5578 59.7327 87.0835 59.3398C87.6147 58.9414 87.8804 58.388 87.8804 57.6797V57.6631C87.8804 57.1706 87.7476 56.7555 87.4819 56.418C87.2218 56.0804 86.8455 55.8231 86.353 55.646C85.866 55.4689 85.2795 55.3804 84.5933 55.3804H78.2598V54.3511H84.3193C85.2435 54.3511 85.9684 54.1629 86.4941 53.7866C87.0199 53.4048 87.2827 52.8735 87.2827 52.1929V52.1763C87.2827 51.5122 87.0448 51.0003 86.5688 50.6406C86.0985 50.2754 85.4538 50.0928 84.6348 50.0928H78.2598V49.022H84.9087C85.6502 49.022 86.2922 49.1465 86.8345 49.3955C87.3823 49.639 87.8057 49.9821 88.1045 50.4248C88.4033 50.8675 88.5527 51.3849 88.5527 51.9771V51.9937C88.5527 52.4474 88.4559 52.8625 88.2622 53.2388C88.0741 53.6151 87.8057 53.9333 87.457 54.1934C87.1084 54.4479 86.7017 54.6222 86.2368 54.7163V54.7661C86.8068 54.8381 87.3132 55.0041 87.7559 55.2642C88.1986 55.5187 88.5444 55.8563 88.7935 56.2769C89.048 56.6974 89.1753 57.1816 89.1753 57.7295V57.7461C89.1753 58.4212 89.012 59.0023 88.6855 59.4893C88.359 59.9707 87.8804 60.3442 87.2495 60.6099C86.6187 60.87 85.8467 61 84.9336 61H78.2598ZM77.6289 61V49.022H78.8906V61H77.6289ZM91.8398 61V49.022H101.967V50.1177H93.1016V54.3345H101.386V55.4053H93.1016V59.9043H101.967V61H91.8398ZM103.934 61L109.994 49.022H111.023V50.3418H110.641L105.295 61H103.934ZM106.433 57.3726L106.931 56.3433H114.41L114.899 57.3726H106.433ZM116.045 61L110.691 50.3418V49.022H111.347L117.406 61H116.045ZM125.607 61.2241C124.191 61.2241 122.965 60.9696 121.93 60.4604C120.895 59.9513 120.096 59.2319 119.531 58.3022C118.972 57.3726 118.693 56.2769 118.693 55.0151V54.9985C118.693 53.7313 118.972 52.6356 119.531 51.7114C120.09 50.7817 120.887 50.0651 121.922 49.5615C122.957 49.0524 124.182 48.7979 125.599 48.7979C126.761 48.7979 127.799 48.9777 128.712 49.3374C129.631 49.6971 130.383 50.2062 130.97 50.8647C131.556 51.5177 131.935 52.2842 132.107 53.1641L132.115 53.2305H130.845L130.829 53.1807C130.635 52.5055 130.3 51.9245 129.824 51.4375C129.348 50.9505 128.753 50.577 128.04 50.3169C127.326 50.0513 126.515 49.9185 125.607 49.9185C124.456 49.9185 123.458 50.1287 122.611 50.5493C121.77 50.9644 121.119 51.5537 120.66 52.3174C120.206 53.0755 119.979 53.9692 119.979 54.9985V55.0151C119.979 56.0389 120.209 56.9326 120.668 57.6963C121.128 58.46 121.778 59.0521 122.619 59.4727C123.466 59.8932 124.462 60.1035 125.607 60.1035C126.515 60.1035 127.323 59.9762 128.031 59.7217C128.745 59.4616 129.337 59.0908 129.808 58.6094C130.284 58.1279 130.624 57.5496 130.829 56.8745L130.845 56.833H132.124L132.107 56.8911C131.93 57.7765 131.545 58.5457 130.953 59.1987C130.367 59.8462 129.619 60.347 128.712 60.7012C127.804 61.0498 126.77 61.2241 125.607 61.2241ZM134.821 61V49.022H136.083V54.3179H145.562V49.022H146.833V61H145.562V55.4219H136.083V61H134.821Z" fill="#0A4438"/>
</svg>
