<svg width="390" height="844" viewBox="0 0 390 844" fill="none" xmlns="http://www.w3.org/2000/svg">
<g clip-path="url(#clip0_31_238)">
<path d="M421.204 -437.347L476.224 -475.505C696.985 159.624 171.642 525.962 1031.82 719.707L978.225 756.88C498.55 648.833 428.296 456.478 477.09 176.234C511.047 -10.7499 498.795 -214.144 421.208 -437.354L421.204 -437.347Z" fill="#D0F778"/>
<path d="M311.73 -361.432L366.367 -399.319C436.205 -198.44 486.866 2.96217 433.457 206.212C358.907 495.774 493.121 696.676 924.827 793.912L871.6 830.817C487.864 744.372 289.69 534.923 390.016 236.045C462.879 16.5601 373.805 -182.861 311.73 -361.432Z" fill="#D0F778"/>
<path d="M202.986 -286.019L257.278 -323.664C311.588 -167.412 439.074 30.028 346.776 265.768C220.675 573.963 482.796 791.963 818.574 867.594L765.717 904.251C477.907 839.43 151.828 612.864 303.692 295.356C415.437 43.3766 249.539 -152.101 202.99 -286.026L202.986 -286.019Z" fill="#D0F778"/>
<path d="M94.8583 -211.044L148.856 -248.486C187.655 -136.873 391.967 56.6057 260.756 324.842C83.1275 651.663 473.167 886.777 712.998 940.802L660.423 977.259C468.557 934.033 14.5658 690.376 217.966 354.226C368.624 69.7509 125.896 -121.758 94.8583 -211.044Z" fill="#D0F778"/>
<path d="M-23.1172 -129.229L37.4777 -171.246C60.7544 -104.287 341.895 85.2413 171.806 385.965C-57.3729 731.419 460.577 983.642 604.492 1016.06L545.304 1057.1C449.377 1035.5 -132.531 774.706 122.411 419.938C311.966 102.977 -7.59832 -84.5862 -23.1098 -129.225L-23.1172 -129.229Z" fill="#D0F778"/>
<path d="M-145.937 -44.0561L-84.3446 -86.763C-76.5793 -64.4431 281.383 121.131 72.3849 454.343C-208.314 818.428 437.542 1087.77 485.504 1098.57L425.33 1140.3C425.33 1140.3 -284.489 862.405 21.9927 489.008C250.45 139.534 -145.944 -44.0604 -145.944 -44.0604L-145.937 -44.0561Z" fill="#D0F778"/>
<path d="M-244.952 24.6057L-196.009 -9.3343C-196.009 -9.3343 45.7067 105.198 44.3605 318.509C43.9767 377.521 27.3763 444.78 -14.4404 518.263C-100.569 638.098 -86.976 746.447 -26.7996 831.097C97.6424 1006.18 404.935 1154.44 404.935 1154.44L385.638 1167.83C385.638 1167.83 95.3187 998.207 -37.6802 846.186C-103.161 771.353 -122.859 665.604 -49.7639 546.736C-14.7172 474.115 -1.80522 406.444 -2.96036 347.565C-7.0678 139.959 -244.956 24.6131 -244.956 24.6131L-244.952 24.6057Z" fill="#D0F778"/>
<path d="M-340.164 90.624L-292.973 57.9004C-292.973 57.9004 -58.7565 174.081 -49.3504 375.961C-46.6194 434.728 -55.8913 502.793 -84.1566 574.548C-144.241 692.456 -118.786 795.492 -47.6386 860.629C93.1679 989.505 367.283 1180.54 367.283 1180.54L349.754 1192.7C349.754 1192.7 91.0597 980.473 -56.7507 874.491C-133.959 819.136 -164.783 718.753 -117.716 601.801C-96.2278 530.904 -90.5697 462.451 -94.9144 403.792C-109.447 207.681 -340.164 90.624 -340.164 90.624Z" fill="#D0F778"/>
<path d="M-432.32 154.529L-386.588 122.818C-386.588 122.818 -159.226 240.774 -139.712 431.095C-133.704 489.644 -135.805 558.482 -150.513 628.532C-184.558 744.521 -148.713 842.482 -65.1078 887.827C89.039 971.444 332.992 1204.32 332.992 1204.32L316.921 1215.46C316.921 1215.46 87.2924 962.67 -72.7846 900.681C-162.991 865.75 -203.64 769.786 -182.621 654.768C-174.686 585.568 -176.105 516.367 -183.824 457.909C-208.14 273.387 -432.328 154.525 -432.328 154.525L-432.32 154.529Z" fill="#D0F778"/>
<path d="M-530.223 222.419L-477.433 185.812C-477.433 185.812 -256.277 305.574 -227.307 484.312C-217.849 542.683 -212.957 612.261 -214.106 680.588C-222.115 794.646 -176.686 889.079 -79.8312 913.124C86.1196 954.297 301.466 1226.18 301.466 1226.18L278.338 1242.22C278.338 1242.22 77.4957 951.978 -94.5544 930.873C-197.93 918.191 -248.264 824.823 -253.269 711.732C-258.881 644.253 -267.198 574.299 -278.463 516.032C-311.919 343.058 -530.216 222.424 -530.216 222.424L-530.223 222.419Z" fill="#D0F778"/>
<path d="M-649.2 304.932L-589.336 263.416C-589.336 263.416 -373.745 384.894 -335.961 552.141C-322.814 610.276 -311.152 680.64 -298.755 747.266C-280.724 859.386 -225.284 952.07 -115.6 953.011C62.9673 954.565 248.887 1262.64 248.887 1262.64L218.684 1283.59C218.684 1283.59 48.1758 957.982 -137.379 975.669C-253.105 986.69 -313.934 894.467 -344.983 783.304C-364.15 717.54 -379.111 646.754 -394.186 588.761C-436.165 427.182 -649.2 304.932 -649.2 304.932Z" fill="#D0F778"/>
</g>
<defs>
<clipPath id="clip0_31_238">
<rect width="390" height="844" fill="white"/>
</clipPath>
</defs>
</svg>
