<svg width="64" height="64" viewBox="0 0 64 64" fill="none" xmlns="http://www.w3.org/2000/svg">
<rect width="64" height="64" rx="32" fill="#F2A356"/>
<path d="M32 44C38.6274 44 44 38.6274 44 32C44 25.3726 38.6274 20 32 20C25.3726 20 20 25.3726 20 32C20 38.6274 25.3726 44 32 44Z" stroke="white" stroke-width="2"/>
<path d="M32.0007 40.6663C32.3688 40.6663 32.6673 40.3679 32.6673 39.9997C32.6673 39.6315 32.3688 39.333 32.0007 39.333C31.6325 39.333 31.334 39.6315 31.334 39.9997C31.334 40.3679 31.6325 40.6663 32.0007 40.6663Z" fill="white" stroke="white"/>
<path d="M32 37.3334V35.4414C32 34.1827 32.8053 33.0654 34 32.6667C34.5823 32.4725 35.0888 32.1001 35.4478 31.6021C35.8067 31.1042 35.9999 30.5059 36 29.892V29.208C36 27.0667 34.2667 25.3334 32.1253 25.3334H32C30.9391 25.3334 29.9217 25.7548 29.1716 26.5049C28.4214 27.2551 28 28.2725 28 29.3334" stroke="white" stroke-width="2"/>
</svg>
