<svg width="282" height="277" viewBox="0 0 282 277" fill="none" xmlns="http://www.w3.org/2000/svg">
<path d="M51.5825 139.544C32.6136 139.505 18.4331 121.847 22.7854 103.384C36.8439 43.7406 84.5873 -0.117406 141.23 0.000833598C197.872 0.118321 245.433 44.1737 259.244 103.876C263.518 122.357 249.265 139.955 230.296 139.916L51.5825 139.544Z" fill="#91D8FF"/>
<path d="M137.848 27.2848H51.0365C44.9467 27.2848 41.4989 20.1761 45.3805 15.4834C47.7182 12.6569 51.1073 11.5016 55.8881 15.64C55.8881 15.64 58.4653 7.06049 68.1067 7.23822C75.9173 7.38207 79.2077 14.0668 79.2077 14.0668C79.2077 14.0668 88.3807 -0.427807 105.146 0.009757C117.46 0.33134 130.614 16.6891 130.614 16.6891C130.614 16.6891 139.393 10.4375 143.679 15.7176C147.432 20.3418 143.804 27.2848 137.848 27.2848Z" fill="white"/>
<path d="M274.815 123.482C270.889 115.626 261.372 125.448 261.372 125.448C261.372 125.448 254.517 111.486 242.719 108.029C220.481 101.515 210.827 122.19 210.827 122.19C210.827 122.19 206.913 117.328 199.233 117.15C195.664 117.067 193.176 119.783 191.461 123.201C188.577 128.948 191.832 136.455 197.218 136.455H268.927C274.198 136.455 277.629 129.111 274.815 123.482Z" fill="white"/>
<path d="M55.4467 78.8006C53.0714 74.0477 47.3138 79.9898 47.3138 79.9898C47.3138 79.9898 43.1663 71.5436 36.029 69.4521C22.5768 65.5111 16.7355 78.0189 16.7355 78.0189C16.7355 78.0189 14.3677 75.0772 9.72172 74.9695C7.56252 74.919 6.05704 76.5624 5.01924 78.6304C3.27501 82.1068 5.24367 86.6489 8.50242 86.6489H51.8837C55.0732 86.6489 57.1488 82.2062 55.4467 78.8006Z" fill="white"/>
<path d="M282 234.409C282 234.409 275.974 221.101 269.923 223.838C269.923 223.838 266.33 214.416 254.228 218.351C254.228 218.351 251.151 211.081 238.995 211.628C238.995 211.628 231.31 211.934 223.916 219.625C223.916 219.625 215.052 209.183 201.951 211.628C188.849 214.073 186.666 219.625 186.666 219.625C186.666 219.625 177.62 212.92 165.454 215.922C153.289 218.924 151.845 222.577 151.845 222.577C151.845 222.577 140.125 213.819 124.715 215.498C109.306 217.177 104.315 224.807 104.315 224.807C104.315 224.807 92.9929 215.065 78.0042 215.498C63.0156 215.931 58.5677 223.041 58.5677 223.041C58.5677 223.041 52.5179 214.913 39.3887 215.498C26.2595 216.082 24.3142 228.408 24.3142 228.408C24.3142 228.408 21.6399 219.479 10.6985 223.527C-0.242816 227.577 0.000440884 234.408 0.000440884 234.408C0.000440884 234.408 24.2502 276.308 144.457 276.308C264.665 276.308 282 234.409 282 234.409Z" fill="#E9D19D"/>
<path d="M167.678 240.349C167.678 240.349 174.406 235.568 179.719 238.932C179.719 238.932 182.906 234.917 189.989 234.268" stroke="#AEC3CB" stroke-miterlimit="10" stroke-linecap="round" stroke-linejoin="round"/>
<path d="M117.036 250.265C117.036 250.265 123.056 249.911 126.774 254.514C126.774 254.514 129.43 249.013 135.628 250.259C135.628 250.259 135.451 244.559 141.825 243.782" stroke="#AEC3CB" stroke-miterlimit="10" stroke-linecap="round" stroke-linejoin="round"/>
<path d="M211.05 246.211C211.05 246.211 219.902 239.222 227.357 241.784C227.357 241.784 232.482 233.042 242.732 234.268" stroke="#AEC3CB" stroke-miterlimit="10" stroke-linecap="round" stroke-linejoin="round"/>
<path d="M40.1117 242.158C40.1117 242.158 44.5483 241.524 46.8303 247.229C46.8303 247.229 49.7456 244.313 55.0702 246.342C55.0702 246.342 56.5915 242.37 63.0563 242.138" stroke="#AEC3CB" stroke-miterlimit="10" stroke-linecap="round" stroke-linejoin="round"/>
<path d="M92.8031 261.006C92.8031 261.804 92.1569 262.45 91.3593 262.45C90.5618 262.45 89.9156 261.804 89.9156 261.006C89.9156 260.209 90.5618 259.563 91.3593 259.563C92.1561 259.563 92.8031 260.209 92.8031 261.006Z" stroke="#AEC3CB" stroke-miterlimit="10" stroke-linecap="round" stroke-linejoin="round"/>
<path d="M130.874 234.151C130.874 234.948 130.228 235.595 129.43 235.595C128.633 235.595 127.987 234.948 127.987 234.151C127.987 233.353 128.633 232.707 129.43 232.707C130.227 232.707 130.874 233.353 130.874 234.151Z" stroke="#AEC3CB" stroke-miterlimit="10" stroke-linecap="round" stroke-linejoin="round"/>
<path d="M201.347 227.641C201.347 228.438 200.701 229.085 199.904 229.085C199.106 229.085 198.46 228.438 198.46 227.641C198.46 226.843 199.106 226.197 199.904 226.197C200.701 226.197 201.347 226.844 201.347 227.641Z" stroke="#AEC3CB" stroke-miterlimit="10" stroke-linecap="round" stroke-linejoin="round"/>
<path d="M195.037 254.515C195.037 255.007 194.638 255.406 194.145 255.406C193.653 255.406 193.254 255.007 193.254 254.515C193.254 254.022 193.653 253.623 194.145 253.623C194.638 253.623 195.037 254.022 195.037 254.515Z" fill="white"/>
<path d="M66.3068 259.563C66.3068 260.056 65.9076 260.455 65.415 260.455C64.9225 260.455 64.5234 260.056 64.5234 259.563C64.5234 259.071 64.9225 258.672 65.415 258.672C65.9076 258.671 66.3068 259.071 66.3068 259.563Z" fill="white"/>
<path d="M158.937 234.151C158.937 234.643 158.538 235.042 158.045 235.042C157.553 235.042 157.154 234.643 157.154 234.151C157.154 233.658 157.553 233.259 158.045 233.259C158.537 233.258 158.937 233.657 158.937 234.151Z" fill="white"/>
<path d="M238.676 226.197C238.676 226.69 238.277 227.089 237.784 227.089C237.292 227.089 236.893 226.69 236.893 226.197C236.893 225.705 237.292 225.305 237.784 225.305C238.276 225.305 238.676 225.705 238.676 226.197Z" fill="white"/>
<path d="M92.8031 235.16C93.2955 235.16 93.6948 234.761 93.6948 234.268C93.6948 233.776 93.2955 233.377 92.8031 233.377C92.3106 233.377 91.9114 233.776 91.9114 234.268C91.9114 234.761 92.3106 235.16 92.8031 235.16Z" fill="white"/>
<path d="M10.1337 236.052C10.6262 236.052 11.0254 235.652 11.0254 235.16C11.0254 234.667 10.6262 234.268 10.1337 234.268C9.64121 234.268 9.24199 234.667 9.24199 235.16C9.24199 235.652 9.64121 236.052 10.1337 236.052Z" fill="white"/>
<path d="M46.9591 229.667C46.9591 230.464 46.3129 231.11 45.5153 231.11C44.7178 231.11 44.0716 230.464 44.0716 229.667C44.0716 228.869 44.7178 228.223 45.5153 228.223C46.3129 228.223 46.9591 228.869 46.9591 229.667Z" stroke="#AEC3CB" stroke-miterlimit="10" stroke-linecap="round" stroke-linejoin="round"/>
<path d="M160.932 261.006C160.932 261.804 160.286 262.45 159.488 262.45C158.691 262.45 158.044 261.804 158.044 261.006C158.044 260.209 158.691 259.563 159.488 259.563C160.285 259.563 160.932 260.209 160.932 261.006Z" stroke="#AEC3CB" stroke-miterlimit="10" stroke-linecap="round" stroke-linejoin="round"/>
<path d="M255.273 245.225C255.273 246.023 254.627 246.669 253.829 246.669C253.032 246.669 252.386 246.023 252.386 245.225C252.386 244.428 253.032 243.782 253.829 243.782C254.627 243.782 255.273 244.428 255.273 245.225Z" stroke="#AEC3CB" stroke-miterlimit="10" stroke-linecap="round" stroke-linejoin="round"/>
<path d="M179.913 171.838C168.88 172.303 157.808 172.671 146.728 172.598C135.649 172.628 124.572 172.254 113.499 171.748C102.425 171.235 91.3627 170.402 80.3197 169.288L72.0369 168.423C69.2797 168.089 66.5188 167.787 63.7623 167.417C61.0052 167.064 58.2487 166.678 55.4916 166.271L47.2991 164.979L47.2946 164.978L44.5178 164.528L44.5111 161.673L44.2271 42.8897V42.8859V37.5282L49.1315 39.4765C53.175 41.0829 57.214 42.4897 61.2567 43.9606L67.3209 46.1529L70.3552 47.2472L73.4317 48.221L85.743 52.1184C87.7847 52.8037 89.8798 53.3151 91.9494 53.9093L98.177 55.6385L104.407 57.3684L110.689 58.9078C114.883 59.9087 119.06 60.9947 123.273 61.9263L135.935 64.6315C138.041 65.1052 140.166 65.4878 142.288 65.884L148.655 67.0746C165.647 70.1858 182.762 72.7035 199.954 74.6028C208.551 75.5284 217.162 76.3712 225.79 76.9895C234.417 77.6244 243.056 78.1568 251.693 78.2834H251.698L252.656 78.2999L252.659 79.2489L252.941 164.846V164.851V165.923L251.894 166.083C245.95 166.987 239.971 167.868 233.984 168.534C228 169.247 222.001 169.831 215.995 170.287C209.986 170.727 203.975 171.133 197.955 171.384C191.947 171.644 185.886 171.794 179.913 171.838ZM179.861 169.08C185.905 169.122 191.862 169.059 197.865 168.886C203.855 168.703 209.846 168.452 215.822 167.991C221.799 167.547 227.767 166.986 233.716 166.278C239.666 165.538 245.579 164.671 251.494 163.618L250.446 164.849V164.845L250.729 79.2474L251.689 80.2129H251.684C242.987 80.3085 234.305 79.9967 225.633 79.5825C216.958 79.1841 208.295 78.5613 199.638 77.8533C182.329 76.39 165.065 74.3031 147.883 71.6115L141.443 70.5774C139.296 70.2332 137.146 69.9026 135.012 69.4809L122.181 67.0822C117.91 66.2522 113.668 65.2649 109.408 64.3634L103.026 62.9716L96.6858 61.3863L90.3438 59.7995C88.2343 59.252 86.1029 58.788 84.0168 58.1479L71.4419 54.5201L68.2969 53.6126L65.188 52.5823L58.971 50.5143C54.8318 49.1278 50.6505 47.7865 46.598 46.296L51.5023 42.8866V42.8904L51.2184 161.674L48.4348 158.37L48.4393 158.37L56.5617 159.974C59.2519 160.478 61.9503 160.963 64.6578 161.416C67.3608 161.886 70.0788 162.289 72.7908 162.725L80.9523 163.897C91.853 165.348 102.803 166.503 113.781 167.351C124.757 168.226 135.762 168.795 146.777 169.048C157.787 169.384 168.811 169.281 179.861 169.08Z" fill="#0A4438"/>
<path d="M73.5175 50.9322H68.2607V165.124H73.5175V50.9322Z" fill="#0A4438"/>
<path d="M91.7837 57.5786H87.4036V165.124H91.7837V57.5786Z" fill="#0A4438"/>
<path d="M108.299 62.9708H104.795V169.076H108.299V62.9708Z" fill="#0A4438"/>
<path d="M125.271 64.691H121.766V169.554H125.271V64.691Z" fill="#0A4438"/>
<path d="M140.833 68.0288H137.329V169.554H140.833V68.0288Z" fill="#0A4438"/>
<path d="M155.271 71.4503H152.643V170.459H155.271V71.4503Z" fill="#0A4438"/>
<path d="M170.019 72.4323H167.39V170.459H170.019V72.4323Z" fill="#0A4438"/>
<path d="M183.707 74.6283H181.078V170.459H183.707V74.6283Z" fill="#0A4438"/>
<path d="M197.389 75.8696H194.76V170.459H197.389V75.8696Z" fill="#0A4438"/>
<path d="M210.733 77.7553H208.981V169.554H210.733V77.7553Z" fill="#0A4438"/>
<path d="M233.043 78.815H231.29V167.235H233.043V78.815Z" fill="#0A4438"/>
<path d="M221.888 78.815H220.136V168.183H221.888V78.815Z" fill="#0A4438"/>
<path d="M243.685 78.815H241.934V167.235H243.685V78.815Z" fill="#0A4438"/>
<path d="M49.1812 63.4325C57.0641 66.3411 65.3175 68.8716 73.516 71.2454C77.6424 72.3864 81.7544 73.5793 85.9147 74.6066L92.14 76.204C94.2186 76.7244 96.3107 77.1875 98.3961 77.6823L104.658 79.1449C106.747 79.6269 108.852 80.0358 110.948 80.4854C115.149 81.3463 119.333 82.2997 123.56 83.031C127.781 83.7969 131.993 84.6171 136.222 85.3386L148.938 87.3532L152.119 87.848L155.311 88.2667L161.695 89.1042C165.952 89.6637 170.206 90.2549 174.482 90.6428L187.298 91.9577C191.574 92.3486 195.862 92.6024 200.145 92.9315C208.708 93.6741 217.3 93.8782 225.887 94.2638C230.18 94.5078 234.478 94.4333 238.776 94.4988L251.672 94.608L251.705 96.3597L238.774 96.5209C234.463 96.5458 230.149 96.7092 225.839 96.5555C217.219 96.3492 208.586 96.3236 199.976 95.7587C195.669 95.5185 191.355 95.3528 187.051 95.0501L174.148 93.9987C169.841 93.6982 165.554 93.1936 161.264 92.7207L154.827 92.0127L151.608 91.6588L148.399 91.2287L135.564 89.4694C131.293 88.8323 127.037 88.0957 122.771 87.4134C118.498 86.765 114.265 85.8944 110.015 85.1149C107.894 84.7067 105.763 84.3384 103.648 83.8963L97.3049 82.5543C95.1916 82.0994 93.0716 81.6754 90.9636 81.1949L84.6472 79.7142C80.4267 78.7653 76.2453 77.6469 72.0497 76.5805C63.6637 74.3377 55.3884 72 47.0521 69.1201L49.1812 63.4325Z" fill="#0A4438"/>
<path d="M48.9929 89.2833C57.0287 91.6828 65.3605 93.7463 73.6395 95.6781C77.7975 96.6127 81.9502 97.5752 86.1331 98.4104L92.3975 99.7095L98.6846 100.902C115.458 104.048 132.344 106.674 149.311 108.688C153.547 109.24 157.803 109.611 162.05 110.082L168.424 110.753C170.548 110.982 172.68 111.118 174.809 111.305L187.586 112.353C191.849 112.649 196.118 112.859 200.385 113.117C208.917 113.707 217.467 113.847 226.014 114.152C230.287 114.344 234.564 114.271 238.84 114.32L251.672 114.389L251.705 116.142L238.847 116.343C234.56 116.384 230.271 116.547 225.984 116.445C217.41 116.32 208.828 116.358 200.258 115.946C195.972 115.778 191.683 115.657 187.398 115.45L174.55 114.667C172.41 114.525 170.264 114.434 168.127 114.249L161.713 113.709C157.439 113.326 153.153 113.043 148.886 112.577C131.796 110.912 114.763 108.63 97.8064 105.818L91.4493 104.749L85.1096 103.574C80.877 102.82 76.6663 101.938 72.4503 101.082C64.0131 99.2968 55.6678 97.4238 47.2396 95.0982L48.9929 89.2833Z" fill="#0A4438"/>
<path d="M48.9439 115.43C56.976 117.669 65.3356 119.519 73.6305 121.222C77.7983 122.034 81.9608 122.884 86.1534 123.584L92.4329 124.686L98.7335 125.669L105.038 126.642L111.361 127.491C115.579 128.039 119.792 128.65 124.026 129.069C128.257 129.514 132.484 130.027 136.722 130.418L149.446 131.498C151.567 131.7 153.692 131.817 155.817 131.94L162.193 132.32L168.57 132.699C170.695 132.836 172.825 132.857 174.953 132.943L187.726 133.364C191.985 133.444 196.245 133.423 200.507 133.458C209.031 133.614 217.548 133.255 226.072 133.083C230.337 133.042 234.588 132.698 238.846 132.494L251.619 131.791L251.761 133.538L238.973 134.512C234.708 134.807 230.449 135.241 226.175 135.373C217.63 135.726 209.087 136.267 200.529 136.291C196.251 136.346 191.973 136.457 187.694 136.466L174.856 136.315C172.716 136.275 170.575 136.297 168.437 136.206L162.021 135.96L155.605 135.713C153.465 135.633 151.326 135.561 149.19 135.404L136.369 134.587C132.098 134.285 127.835 133.858 123.566 133.499C119.294 133.167 115.041 132.642 110.781 132.18L104.393 131.458L98.0196 130.612L91.6459 129.754L85.2873 128.776C81.0427 128.159 76.82 127.39 72.5904 126.657C64.1254 125.1 55.7597 123.443 47.2901 121.274L48.9439 115.43Z" fill="#0A4438"/>
<path d="M48.9402 139.933C50.8885 140.479 52.9618 141.012 55.0028 141.499C57.0453 142.014 59.1133 142.461 61.1776 142.921C63.2374 143.397 65.3145 143.809 67.3924 144.223C69.471 144.63 71.5406 145.083 73.6328 145.433C77.8073 146.176 81.9788 146.947 86.1805 147.555L92.4736 148.526L98.79 149.35L105.109 150.17L111.447 150.836C115.673 151.274 119.898 151.752 124.14 152.032L130.498 152.524C132.618 152.677 134.736 152.883 136.86 152.961L149.603 153.59C151.727 153.724 153.854 153.723 155.981 153.776L162.361 153.905L168.743 154.035C170.871 154.056 172.997 154.003 175.126 153.99L187.894 153.858L200.654 153.336L207.036 153.067C209.166 153.006 211.284 152.772 213.408 152.634L226.15 151.667L229.336 151.426L232.512 151.082L238.863 150.377L251.569 148.965L251.811 150.7L239.101 152.384L232.744 153.226L229.564 153.638L226.373 153.948L213.606 155.188C211.476 155.372 209.352 155.651 207.216 155.757L200.814 156.164L188.004 156.958L175.174 157.361C173.035 157.418 170.896 157.517 168.757 157.54L162.337 157.546L155.916 157.552C153.775 157.543 151.634 157.588 149.495 157.5L136.653 157.136C134.511 157.103 132.375 156.941 130.236 156.831L123.82 156.47C119.539 156.277 115.271 155.886 111 155.534L104.592 154.996L98.1981 154.303L91.8033 153.605L85.4236 152.758C81.1647 152.233 76.9262 151.543 72.6831 150.879C70.5585 150.569 68.4475 150.155 66.3305 149.786C64.2142 149.411 62.0972 149.037 59.9884 148.596C57.8774 148.173 55.7649 147.762 53.6585 147.278C51.5392 146.818 49.4666 146.335 47.2938 145.774L48.9402 139.933Z" fill="#0A4438"/>
<path d="M21.6109 237.002V24.4041C21.6109 24.4041 26.7457 20.3071 31.8812 24.4041V237.38C31.8812 237.38 28.4884 235.49 21.6109 237.002Z" fill="#733A08"/>
<path d="M256.676 225.634V69.4522C256.676 69.4522 259.944 66.4427 263.212 69.4522V225.912C263.212 225.912 261.052 224.524 256.676 225.634Z" fill="#733A08"/>
<path d="M48.361 43.1983L31.8812 33.4039" stroke="#FFB769" stroke-width="2" stroke-miterlimit="10" stroke-linecap="round" stroke-linejoin="round"/>
<path d="M21.6109 34.0945C21.6109 34.0945 25.0474 30.2649 31.8812 33.4039" stroke="#FFB769" stroke-width="2" stroke-miterlimit="10" stroke-linecap="round" stroke-linejoin="round"/>
<path d="M21.6109 40.6784C21.6109 40.6784 25.0474 36.8487 31.8812 39.9877" stroke="#FFB769" stroke-width="2" stroke-miterlimit="10" stroke-linecap="round" stroke-linejoin="round"/>
<path d="M21.6109 37.5272C21.6109 37.5272 25.0474 33.6976 31.8812 36.8366" stroke="#FFB769" stroke-width="2" stroke-miterlimit="10" stroke-linecap="round" stroke-linejoin="round"/>
<path d="M48.361 161.536L31.8812 160.845" stroke="#FFB769" stroke-width="2" stroke-miterlimit="10" stroke-linecap="round" stroke-linejoin="round"/>
<path d="M21.6109 161.535C21.6109 161.535 25.0625 160.214 31.8812 160.845" stroke="#FFB769" stroke-width="2" stroke-miterlimit="10" stroke-linecap="round" stroke-linejoin="round"/>
<path d="M21.6109 164.373C21.6109 164.373 25.0625 163.052 31.8812 163.683" stroke="#FFB769" stroke-width="2" stroke-miterlimit="10" stroke-linecap="round" stroke-linejoin="round"/>
<path d="M21.6109 167.579C21.6109 167.579 25.0625 166.258 31.8812 166.889" stroke="#FFB769" stroke-width="2" stroke-miterlimit="10" stroke-linecap="round" stroke-linejoin="round"/>
<path d="M29.9815 27.0125C33.2229 25.2245 34.401 21.1475 32.6131 17.9061C30.8251 14.6648 26.748 13.4866 23.5067 15.2746C20.2653 17.0626 19.0871 21.1397 20.8751 24.381C22.6631 27.6223 26.7402 28.8005 29.9815 27.0125Z" fill="#733A08"/>
<path d="M256.418 79.7021L251.689 79.5327" stroke="#FFB769" stroke-miterlimit="10" stroke-linecap="round" stroke-linejoin="round"/>
<path d="M256.418 79.7022C256.418 79.7022 258.855 76.9872 263.7 79.2127" stroke="#FFB769" stroke-miterlimit="10" stroke-linecap="round" stroke-linejoin="round"/>
<path d="M256.418 84.3707C256.418 84.3707 258.855 81.6557 263.7 83.8812" stroke="#FFB769" stroke-miterlimit="10" stroke-linecap="round" stroke-linejoin="round"/>
<path d="M256.418 82.1362C256.418 82.1362 258.855 79.4212 263.7 81.6467" stroke="#FFB769" stroke-miterlimit="10" stroke-linecap="round" stroke-linejoin="round"/>
<path d="M256.418 167.726L251.689 165.029" stroke="#FFB769" stroke-miterlimit="10" stroke-linecap="round" stroke-linejoin="round"/>
<path d="M256.418 167.726C256.418 167.726 258.866 166.789 263.7 167.237" stroke="#FFB769" stroke-miterlimit="10" stroke-linecap="round" stroke-linejoin="round"/>
<path d="M256.418 169.738C256.418 169.738 258.866 168.801 263.7 169.248" stroke="#FFB769" stroke-miterlimit="10" stroke-linecap="round" stroke-linejoin="round"/>
<path d="M256.418 172.011C256.418 172.011 258.866 171.075 263.7 171.522" stroke="#FFB769" stroke-miterlimit="10" stroke-linecap="round" stroke-linejoin="round"/>
<path d="M260.06 72.9368C262.684 72.9368 264.812 70.8092 264.812 68.1846C264.812 65.56 262.684 63.4324 260.06 63.4324C257.435 63.4324 255.307 65.56 255.307 68.1846C255.307 70.8092 257.435 72.9368 260.06 72.9368Z" fill="#733A08"/>
</svg>
