<svg width="309" height="234" viewBox="0 0 309 234" fill="none" xmlns="http://www.w3.org/2000/svg">
<path d="M181.238 103.485C173.813 103.485 162.021 105.848 157.052 107.029C159.365 115.114 164.758 130.859 167.833 129.158C171.676 127.032 174.02 126.244 180.113 125.378C186.581 126.323 193.986 125.614 202.048 124.433C218.697 121.661 244.107 112.62 254.731 108.446C255.606 108.368 257.843 108.053 259.793 107.423C265.136 104.509 264.199 96.0825 263.824 89.31C263.449 82.5374 259.699 86.9474 258.481 88.1287C257.506 89.0737 254.262 97.3951 252.762 101.438C236.951 102.356 204.673 104.194 202.048 104.194C198.767 104.194 190.518 103.485 181.238 103.485Z" fill="url(#paint0_linear_117_558)"/>
<path d="M154.575 158.461C159.76 155.302 157.862 154.091 156.265 153.88L176.651 140.454C178.279 141.56 181.93 144.956 183.508 149.695C185.086 154.433 160.681 193.527 148.28 212.481C149.408 214.693 152.245 220.237 154.575 224.723C157.487 230.33 156.265 233.095 154.575 233.253C152.884 233.41 148.656 228.83 142.268 222.433C137.158 217.315 140.139 213.666 142.268 212.481C142.268 205.031 142.606 188.457 143.959 181.759C145.65 173.388 149.22 163.358 154.575 158.461Z" fill="url(#paint1_linear_117_558)"/>
<path d="M123.301 165.183C118.054 165.625 116.93 162.788 117.023 161.315C133.515 152.473 167.097 134.38 169.496 132.738C172.026 132.738 179.241 137.08 179.241 138.659C170.62 145.479 153.536 156.605 146.071 161.315C140.667 162.42 128.549 164.741 123.301 165.183Z" fill="url(#paint2_linear_117_558)"/>
<path d="M98.4846 168.039C86.7922 166.025 83.6192 159.751 83.4943 156.866L125.28 118.156L157.322 104.308C160.632 111.861 168.058 129.155 171.281 137.904C128.653 162.453 113.1 170.557 98.4846 168.039Z" fill="url(#paint3_linear_117_558)"/>
<path d="M7.00846 157.464C5.73341 152.8 10.6649 132.464 13.29 122.878L33.4469 125.32C30.4468 134.564 24.2591 153.415 23.509 154.864C60.5418 158.567 49.1976 156.991 52.7602 156.991C56.1354 156.282 59.9793 157.149 65.417 160.222C70.8547 163.294 66.2608 171.96 65.9795 172.669C65.6983 173.378 64.1982 174.087 64.292 173.3C64.3857 172.512 64.292 169.124 62.2294 168.809C60.1668 168.494 56.6041 166.13 54.2603 164.555C52.3852 163.294 50.8539 163.609 50.3226 163.924C49.4476 164.082 45.785 164.665 38.1346 165.736C28.5717 167.076 19.0089 167.233 13.3836 166.288C7.7584 165.342 8.60228 163.294 7.00846 157.464Z" fill="url(#paint4_linear_117_558)"/>
<path d="M115.986 81.8153C111.336 82.3837 100.546 80.7363 95.733 79.8415C94.2328 81.1836 102.484 92.0788 106.797 95.3948C125.626 99.1212 134.521 84.2101 136.615 76.2887C138.115 76.1834 141.491 75.7045 142.991 74.6307C144.022 72.4991 144.116 72.578 144.772 71.9464C146.273 71.2359 147.117 70.2095 147.398 69.7358C147.623 69.3568 145.741 69.1568 144.772 69.1042C146.085 68.2357 148.917 66.183 149.742 64.9198C150.773 63.3408 140.834 64.4461 139.803 64.9198C135.677 66.6567 134.833 68.3937 132.302 71.3148C122.175 81.9732 121.8 81.1047 115.986 81.8153Z" fill="url(#paint5_linear_117_558)"/>
<path d="M16.3712 102.795C18.6929 95.5293 29.0096 82.8674 33.8778 77.4446C36.187 75.3123 42.3221 70.0054 48.3886 65.8356C55.9717 60.6234 67.0186 56.9117 78.1592 62.2029C89.2997 67.494 107.555 96.0821 112.33 103.269C115.775 109.018 122.503 115.509 125.436 118.037L127.87 119.379C113.984 131.83 85.761 156.938 83.9635 157.76C81.7167 158.786 78.5336 157.365 77.7847 156.733C75.7625 156.101 47.3588 128.698 47.3588 128.698L46.4782 132.078C46.4782 132.078 8.95585 126.708 8.20691 126.708C8.20691 126.313 13.469 111.877 16.3712 102.795Z" fill="url(#paint6_linear_117_558)"/>
<path d="M82.8353 106.367C79.3698 94.2251 63.029 97.7362 54.6747 101.466L52.8659 108.37L47.319 128.778C49.038 130.195 56.1222 136.914 66.8487 147.044C80.2568 159.706 84.4855 163.033 88.0954 161.385C86.4452 154.707 98.0999 148.084 99.9564 147.044C101.813 146.003 105.491 142.665 110.373 135.855C115.812 128.271 126.544 125.935 127.63 119.336C112.262 117.514 109.961 119.637 98.0999 124.841C86.2389 130.045 87.1671 121.545 82.8353 106.367Z" fill="url(#paint7_linear_117_558)"/>
<path d="M29.5731 36.6978C37.496 42.2453 38.3647 48.8989 37.8087 51.5322L32.1793 63.8212C31.519 64.5526 28.6765 66.1034 22.5884 66.4545C15.3952 63.3823 7.57658 60.1345 14.2485 52.5856C20.9204 45.0367 19.6694 38.5411 19.461 36.0833C19.2525 33.6255 19.6695 29.7633 29.5731 36.6978Z" fill="#1E1E1E"/>
<path d="M44.0638 57.5009C47.5666 62.6973 45.7318 66.2786 44.3766 67.4197C48.1643 69.0875 53.7799 73.3008 45.9404 76.8119C38.1009 80.323 34.89 77.6897 34.2645 75.9342L27.1756 69.9653C21.8589 69.5264 22.0674 67.5953 22.7972 66.2786C23.381 65.2253 25.8204 65.0204 26.9671 65.0497L23.1099 61.8019C20.7122 59.783 26.4459 57.413 26.5501 55.5697C26.6544 53.7264 32.805 50.3031 34.5772 50.5664C36.3494 50.8297 39.6854 51.0053 44.0638 57.5009Z" fill="url(#paint8_linear_117_558)"/>
<path fill-rule="evenodd" clip-rule="evenodd" d="M303.497 13.8495C312.847 27.8495 309.316 46.8879 295.256 56.5378C281.196 66.1886 261.832 62.136 252.531 47.8891C243.228 33.6413 247.207 14.781 261.208 5.43142C275.21 -3.91911 294.146 -0.149597 303.497 13.8495Z" fill="white"/>
<path fill-rule="evenodd" clip-rule="evenodd" d="M275.968 25.8337L276.04 25.8284C279.022 25.6276 282.011 25.003 284.965 23.9839C286.814 23.347 288.649 22.5553 290.46 21.6176C289.886 20.6586 289.225 20.2022 287.032 21.0355C286.355 21.3734 285.665 21.6742 284.965 21.9404C282.047 23.0506 278.971 23.5566 276.04 23.6778C273.034 23.8026 270.183 23.5221 267.809 23.0719C267.219 22.9595 266.656 22.8366 266.13 22.7074C263.737 21.5565 262.7 21.545 261.62 23.0064C263.629 24.0105 265.703 24.7403 267.809 25.2153C270.496 25.8204 273.237 26.0115 275.968 25.8337Z" fill="url(#paint9_linear_117_558)"/>
<path fill-rule="evenodd" clip-rule="evenodd" d="M291.358 24.4941C291.767 24.1935 292.089 24.0124 291.85 23.6176C291.656 23.2925 291.406 22.8787 291.178 22.5754C290.956 22.3065 290.629 22.2965 290.201 22.5455C288.437 23.4773 286.714 24.2514 285.029 24.8762C281.927 26.0262 278.955 26.6709 276.097 26.871C273.242 27.0711 270.501 26.8275 267.859 26.2C265.801 25.712 263.803 24.9912 261.858 24.0667C261.501 23.8775 261.195 23.8639 260.994 24.284C260.83 24.5521 260.663 24.8391 260.502 25.1044C260.334 25.4186 260.551 25.7165 260.846 25.8931C263.501 27.8064 265.839 29.8808 267.859 32.1201C271.846 36.5407 274.593 41.6051 276.097 47.3522C276.283 48.0648 276.45 48.7883 276.598 49.5217C276.715 49.7843 276.848 50.0243 277.171 50.0288C277.407 50.0071 277.794 49.9718 278.031 49.95C278.396 49.9183 278.601 49.7282 278.618 49.4737C278.266 41.884 280.776 35.8353 285.029 30.6768C286.849 28.4701 288.987 26.4255 291.358 24.4941Z" fill="url(#paint10_linear_117_558)"/>
<path fill-rule="evenodd" clip-rule="evenodd" d="M260.145 26.1917C259.511 27.2495 259.979 28.3236 260.915 29.08C263.609 31.3305 265.964 33.828 267.952 36.6032C270.433 40.0653 272.344 43.9599 273.638 48.3522C274.251 49.5765 275.052 50.1303 276.04 50.0136C275.179 44.2459 272.111 38.1741 267.952 33.2163C265.626 30.4437 262.958 28.0195 260.145 26.1917Z" fill="url(#paint11_linear_117_558)"/>
<path fill-rule="evenodd" clip-rule="evenodd" d="M294.714 55.5909C294.675 55.6162 294.633 55.6424 294.595 55.6676C291.236 57.1093 287.823 58.0106 285.097 56.5112C283.79 55.7921 282.639 54.5209 281.73 52.4928C281.299 51.4453 280.465 51.236 279.447 51.4074C280.27 55.3654 282.434 57.3439 285.097 57.9484C285.451 58.0287 285.811 58.0837 286.18 58.1171C288.607 58.3354 290.926 57.7346 293.62 56.2856C292.561 56.9289 291.477 57.4982 290.375 57.9962C288.358 58.6205 286.604 58.8181 285.097 58.6124C281.935 58.1793 279.877 55.9672 278.852 52.1905C278.772 51.8766 278.684 51.5608 278.158 51.6339C277.858 51.6691 277.538 51.7286 277.231 51.7891C276.746 51.9199 276.684 52.186 276.724 52.417C276.861 54.1447 276.739 55.7398 276.222 57.0164C275.558 58.6539 274.244 59.7681 271.998 59.9729C271.519 59.8719 271.042 59.76 270.57 59.6346C271.987 59.7167 273.218 59.3342 274.202 58.5122C275.898 57.0931 276.325 54.2656 276.014 51.8008C274.804 51.8378 274.168 52.2826 274.105 53.1279C273.81 57.583 271.587 59.0581 268.037 58.8118L267.905 58.8019C262.152 56.7061 256.992 52.8311 253.333 47.3512C249.849 42.1374 248.228 36.2225 248.31 30.3943C249.296 26.3976 251.649 24.595 256.359 26.4003C257.196 26.7143 257.858 26.3101 258.345 25.1878C256.087 23.8083 253.205 22.962 251.211 23.9346C249.801 24.6194 248.829 25.9546 248.455 27.8312C248.515 27.2258 248.595 26.6213 248.692 26.0205C250.421 21.7152 254.124 22.0959 258.014 24.2495C258.221 24.3875 258.502 24.4471 258.808 24.0465C258.98 23.7848 259.155 23.5097 259.299 23.2426C259.565 22.7807 259.293 22.5578 259.021 22.3431C254.247 18.4799 253.546 14.0898 257.639 9.10336C258.342 8.43935 259.083 7.8051 259.859 7.20424C257.88 8.91751 256.654 10.6858 256.035 12.8258C255.138 15.9186 256.028 19.2729 259.994 22.1275C260.536 21.246 260.647 20.3682 259.797 19.4985C254.859 14.1439 257.567 9.79986 261.407 6.0819C261.463 6.04491 261.516 6.00702 261.57 5.97093C263.632 4.59328 265.805 3.50883 268.037 2.70317C270.705 1.74143 273.461 1.18026 276.222 1.00523C279.21 0.814869 282.203 1.07651 285.097 1.76939C287.289 2.29357 289.423 3.06495 291.454 4.07541C295.261 7.61474 298.723 11.2596 292.6 17.8033C292.018 18.3554 291.732 19.0546 292.007 19.5192C292.224 19.8621 292.345 20.0588 292.561 20.4016C296.883 17.1862 298.051 13.4159 297.388 10.7156C296.949 8.93014 295.451 6.74592 293.728 5.33398C294.033 5.52164 294.335 5.712 294.635 5.91048C299.299 10.2744 300.465 15.0019 293.38 20.5838C293.008 20.8428 292.975 21.1414 293.203 21.4662C293.38 21.7305 293.555 21.994 293.734 22.2583C293.933 22.5416 294.208 22.5894 294.559 22.4018C300.123 19.0447 304.529 19.3027 307.366 24.7457C307.477 25.2798 307.572 25.813 307.652 26.3498C307.235 24.9766 306.444 23.6071 305.259 22.759C301.941 20.3863 298.593 21.1125 294.421 23.2913C294.654 23.6224 294.791 23.8092 295.024 24.1403C295.349 24.5725 296.12 24.6013 296.853 24.2738C304.375 21.1035 307.155 26.1251 307.93 29.4524C307.936 29.4182 307.939 29.3839 307.947 29.3478C308.423 39.4578 303.742 49.5606 294.714 55.5909ZM303.741 13.6838C299.214 6.90558 292.46 2.50556 285.097 0.799505C282.2 0.127367 279.209 -0.125248 276.222 0.0578977C273.464 0.227511 270.71 0.769732 268.037 1.6999C265.621 2.54075 263.271 3.69737 261.045 5.18419C246.911 14.6239 242.893 33.6666 252.285 48.0503C256.165 53.9949 261.782 58.1802 268.037 60.359C270.678 61.2784 273.434 61.8413 276.222 62.0263C279.177 62.223 282.168 61.9947 285.097 61.3217C288.694 60.4943 292.196 58.9967 295.42 56.7827C309.617 47.0408 313.181 27.8185 303.741 13.6838Z" fill="url(#paint12_linear_117_558)"/>
<path fill-rule="evenodd" clip-rule="evenodd" d="M285.036 31.5501C284.074 32.8394 283.203 34.2739 282.433 35.9524C280.383 40.4182 279.428 44.5855 279.589 49.7345C281.374 49.3126 281.554 48.1458 281.679 45.4202C282.097 42.5585 283.18 39.1715 285.036 35.8444C286.621 33.0036 288.771 30.2073 291.558 27.822C293.178 26.1253 292.999 25.3332 292.316 24.4259C289.528 26.7414 287.076 28.8155 285.036 31.5501Z" fill="url(#paint13_linear_117_558)"/>
<defs>
<linearGradient id="paint0_linear_117_558" x1="210.593" y1="85.6257" x2="210.593" y2="129.285" gradientUnits="userSpaceOnUse">
<stop stop-color="#A1584A"/>
<stop offset="1" stop-color="#93493B"/>
</linearGradient>
<linearGradient id="paint1_linear_117_558" x1="161.514" y1="140.454" x2="161.514" y2="233.256" gradientUnits="userSpaceOnUse">
<stop stop-color="#A1584A"/>
<stop offset="1" stop-color="#93493B"/>
</linearGradient>
<linearGradient id="paint2_linear_117_558" x1="99.9872" y1="138.263" x2="173.183" y2="159.191" gradientUnits="userSpaceOnUse">
<stop stop-color="#01AD6F"/>
<stop offset="1" stop-color="#01A66A"/>
</linearGradient>
<linearGradient id="paint3_linear_117_558" x1="87.1174" y1="152.767" x2="165.064" y2="106.48" gradientUnits="userSpaceOnUse">
<stop stop-color="#01D98B"/>
<stop offset="1" stop-color="#04D68A"/>
</linearGradient>
<linearGradient id="paint4_linear_117_558" x1="37.4306" y1="122.878" x2="37.4306" y2="173.645" gradientUnits="userSpaceOnUse">
<stop stop-color="#A1584A"/>
<stop offset="1" stop-color="#93493B"/>
</linearGradient>
<linearGradient id="paint5_linear_117_558" x1="122.685" y1="64.1005" x2="122.685" y2="95.9822" gradientUnits="userSpaceOnUse">
<stop stop-color="#A1584A"/>
<stop offset="1" stop-color="#93493B"/>
</linearGradient>
<linearGradient id="paint6_linear_117_558" x1="19.7993" y1="64.7427" x2="116.132" y2="168.841" gradientUnits="userSpaceOnUse">
<stop stop-color="#FFDC40"/>
<stop offset="1" stop-color="#F8D22C"/>
</linearGradient>
<linearGradient id="paint7_linear_117_558" x1="51.4788" y1="102.753" x2="93.3196" y2="158.943" gradientUnits="userSpaceOnUse">
<stop stop-color="#F5CD1C"/>
<stop offset="1" stop-color="#F9CE12"/>
</linearGradient>
<linearGradient id="paint8_linear_117_558" x1="25.4923" y1="55.7332" x2="44.6733" y2="78.5134" gradientUnits="userSpaceOnUse">
<stop stop-color="#A1584A"/>
<stop offset="1" stop-color="#93493B"/>
</linearGradient>
<linearGradient id="paint9_linear_117_558" x1="276.04" y1="20.6002" x2="276.04" y2="25.8973" gradientUnits="userSpaceOnUse">
<stop stop-color="#DD6868"/>
<stop offset="1" stop-color="#D36363"/>
</linearGradient>
<linearGradient id="paint10_linear_117_558" x1="276.187" y1="22.3659" x2="276.187" y2="50.0288" gradientUnits="userSpaceOnUse">
<stop stop-color="#DD6868"/>
<stop offset="1" stop-color="#D36363"/>
</linearGradient>
<linearGradient id="paint11_linear_117_558" x1="267.947" y1="26.1917" x2="267.947" y2="50.0288" gradientUnits="userSpaceOnUse">
<stop stop-color="#DD6868"/>
<stop offset="1" stop-color="#D36363"/>
</linearGradient>
<linearGradient id="paint12_linear_117_558" x1="278.1" y1="1.52588e-05" x2="278.1" y2="62.0943" gradientUnits="userSpaceOnUse">
<stop stop-color="#DD6868"/>
<stop offset="1" stop-color="#D36363"/>
</linearGradient>
<linearGradient id="paint13_linear_117_558" x1="286.193" y1="24.4259" x2="286.193" y2="49.7345" gradientUnits="userSpaceOnUse">
<stop stop-color="#DD6868"/>
<stop offset="1" stop-color="#D36363"/>
</linearGradient>
</defs>
</svg>
